<?xml version='1.0' encoding='utf-8'?>
<svg xmlns="http://www.w3.org/2000/svg" width="292" height="90" viewBox="0 0 292 90" version="1.1" id="H3">
  <title id="title1">Yuohme horizontal — monochrome</title>
  <desc id="desc1">APPROVED FINAL on 2026-10-09. Exact H3 fourth-option bespoke lowercase yuohme geometry. Colour-only derivative; exact paths/transforms/viewBox preserved.</desc>
  <g id="logo-horizontal">
    <path id="letter-1-y-custom" aria-label="y" fill="#171A1C" transform="translate(11.25 22.94)" d="M 0,0 H 10.5 V 22.5 C 10.5,27.5 13.1,30.1 18,30.1 C 22.9,30.1 25.5,27.5 25.5,22.5 V 0 H 36 V 43.5 C 36,51.5 32.1,55.5 24.3,55.5 H 0 V 45.3 H 23 C 24.8,45.3 25.5,44.3 25.5,42.2 V 33.3 C 23.1,36.7 19.7,39.06 15.1,39.06 C 5.7,39.06 0,32.5 0,22.5 Z" />
    <path d="M 25.1,1.2 Q 15.1,1.2 9.7,-5 4.4,-11.3 4.4,-21.5 v -33.1 h 15 v 31.9 q 0,4.7 2.8,7.6 2.8,2.8 7.2,2.8 4.4,0 7.2,-2.8 2.8,-2.9 2.8,-7.6 v -31.9 h 15 V 0 h -14 v -6.7 q -2.1,4 -6.1,6 -4,1.9 -9.2,1.9 z" id="letter-2-u" transform="translate(47.193000000 62) scale(0.717500000 0.7)" aria-label="u" fill="#171A1C" />
    <path d="m 32.6,1.2 q -8.1,0 -14.8,-3.7 -6.6,-3.7 -10.6,-10.1 -3.9,-6.5 -3.9,-14.7 0,-8.3 3.9,-14.7 4,-6.4 10.6,-10.1 6.7,-3.7 14.8,-3.7 8.1,0 14.7,3.7 6.6,3.7 10.5,10.1 4,6.4 4,14.7 0,8.2 -4,14.7 -3.9,6.4 -10.5,10.1 -6.6,3.7 -14.7,3.7 z m 0,-13.5 q 6.1,0 9.9,-4.2 3.8,-4.2 3.8,-10.8 0,-6.5 -3.8,-10.7 -3.8,-4.3 -9.9,-4.3 -6.1,0 -10,4.3 -3.8,4.2 -3.8,10.7 0,6.6 3.8,10.8 3.9,4.2 10,4.2 z" id="letter-3-o" transform="translate(86.557250000 62) scale(0.717500000 0.7)" aria-label="o" fill="#171A1C" />
    <path d="m 5.5,0 v -75.7 h 15 v 26.2 q 2.3,-3.2 6,-4.7 3.7,-1.6 8.3,-1.6 6.2,0 10.8,2.6 4.7,2.6 7.3,7.3 2.6,4.6 2.6,10.8 V 0 h -15 v -31.9 q 0,-4.7 -2.8,-7.5 -2.8,-2.9 -7.2,-2.9 -4.4,0 -7.2,2.9 -2.8,2.8 -2.8,7.5 V 0 Z" id="letter-4-h" transform="translate(129.603750000 62) scale(0.717500000 0.7)" aria-label="h" fill="#171A1C" />
    <path d="m 5.5,0 v -54.6 h 14 v 6.7 q 2.1,-4 6.1,-5.9 4,-2 9.2,-2 5.4,0 9.8,2.3 4.5,2.2 6.8,6.1 2.9,-4.3 7.2,-6.3 4.4,-2.1 9.7,-2.1 5.9,0 10.4,2.6 4.6,2.6 7.2,7.3 2.6,4.6 2.6,10.8 V 0 h -15 v -31.9 q 0,-4.7 -2.6,-7.5 -2.5,-2.9 -6.9,-2.9 -4.4,0 -7,2.9 -2.5,2.8 -2.5,7.5 V 0 h -15 v -31.9 q 0,-4.7 -2.6,-7.5 -2.5,-2.9 -6.9,-2.9 -4.4,0 -7,2.9 -2.5,2.8 -2.5,7.5 V 0 Z" id="letter-5-m" transform="translate(168.577000000 62) scale(0.686000000 0.7)" aria-label="m" fill="#171A1C" />
    <path d="M 31.8,1.2 Q 23.1,1.2 16.7,-2.6 10.3,-6.5 6.8,-13 3.3,-19.5 3.3,-27.4 q 0,-8.2 3.6,-14.6 3.7,-6.4 9.9,-10.1 6.2,-3.7 14,-3.7 8.7,0 14.7,3.6 6,3.6 9.1,9.7 3.2,6 3.2,13.6 0,1.6 -0.2,3.2 -0.1,1.5 -0.5,2.6 H 18.9 q 0.6,5.1 4.1,8.2 3.5,3.1 9,3.1 4,0 6.8,-1.6 2.9,-1.6 4.5,-4.4 l 12,5.7 q -2.5,6 -8.8,9.7 -6.3,3.6 -14.7,3.6 z m -1,-45 q -4.4,0 -7.5,2.5 -3,2.5 -4.1,7.2 h 22.7 q -0.5,-4.3 -3.5,-7 -3,-2.7 -7.6,-2.7 z" id="letter-6-e" transform="translate(229.482250000 62) scale(0.717500000 0.7)" aria-label="e" fill="#171A1C" />
  </g>
</svg>